<svg id="Layer_1" data-name="Layer 1" xmlns="http://www.w3.org/2000/svg" viewBox="0 0 1124.56 1600.04"><title>globo2</title><path d="M561.42,46.33c1.83-4.6,87.11-.41,100,.46,99.46,204.35-4,982.31-31.58,1208.13a407.49,407.49,0,0,0,48.4-2.13c83.85-215.68,200.39-543,189-774C865.7,461.38,873.39,217.52,772.09,66A642.14,642.14,0,0,1,925.59,127c44.93,60.43,112,217.77,73.3,469.08C953.41,881,869.55,976.91,715,1246.83q15-3.45,29.58-8.21c-7.62,24.16-31.26,99.68-41.43,122.76l-2,.58q-8.5,38.7-17,77.42c1.56,5.7,16.85,88.71,17,89.72,2.94.05,6.32-.32,8.69,1.85a6.07,6.07,0,0,1,.87,8.62c-2.31,2.28-5.78,1.53-8.7,1.77-.77,110.08,11,102.08-90.46,102.88-65.34,1.08-50.15-22.51-51.75-103.17-3.07.07-6.65,1.23-9.32-.79-3.71-2.66-2.54-9.59,2.07-10.48a77,77,0,0,1,8.46-.16c18.55-101.16,17-86.93,15.64-94.1-5.37-24.44-10.31-49-15.87-73.35-9.18-8.27-47.38-102.7-51.13-125.15-10.06-11.29-20.55-22.2-30.73-33.37C347.22,976.44,344.15,973.43,328.73,943c-69.06-123-202.62-528.84-42.17-798.7,3.14-5.12,27.67-43.42,32.12-45.14,44.37-20.46,91.62-34.18,139.61-43-26.3,37.72-49,78.73-69.2,147.87-50.66,176.41-35.36,399.83-22,475.67,28.42,172.69,106,400,168.17,564.11a434.85,434.85,0,0,0,55.1,8.78c-20.45-161.4-62.48-512.66-70.14-675.1l-2.1-59.22c-.89-9.45-12.67-355.31,43.34-471.93m3.82,1316.76q7.65,35.6,15.27,71.21c.21-22.43,0-44.87.07-67.31-5.17-1.07-10.28-2.39-15.34-3.9m115.55,4.56c.19,26.87-.26,61,.51,67.63.8-6.6,15.24-70.88,15.47-71.9-5.23,1.76-10.66,2.84-16,4.27m-95.84.28c0,22.4-.28,44.82.17,67.22,4.19-21.73,9.11-43.32,13.78-65-4.7-.42-9.33-1.39-13.95-2.27m77.95,2.66c4.68,21.72,9.27,43.45,14,65.15.23-22.45,0-44.9.1-67.34-4.69.76-9.37,1.53-14.08,2.19m-60.07.23Q595.35,1405.4,588,1440h12.8c.26-5.39-.77-11,1-16.2,3.44-9.24,18.81-9.49,22.68-.48,2.26,5.25,1,11.13,1.28,16.68h9.62c.4-5.39-.95-11.07.9-16.24,3.84-9.28,19.34-9,22.82.43,1.51,5.09.43,10.55.69,15.8,4.69,0,9.36,0,14,0-5-23-9.94-45.94-14.83-68.92-13.66,1.71-34.62,2.22-56.08-.21m-16.32,79.66c-5,26.38-9.89,52.79-15.1,79.14,57.89-.6,113-.47,119.43-.45-5.22-26.22-10.18-52.49-15.42-78.69-5.14,0-10.28,0-15.4,0-3.28,14.85-21.75,15.1-25.09,0H625.6c-3.62,16-23.1,12.92-24.77.16C596.06,1450.37,591.29,1450.5,586.51,1450.48Z" transform="translate(-50.28 -44.21)" style="fill:#fff"/><path d="M131.36,256.75C99.94,369.53,75,505.8,141.69,708.07c50.79,152.37,102.65,208.4,204.38,352.21-5.16-4.76-104.63-112.18-119-126.1C86.5,791,5.54,581,76.4,377.93,86.48,335.73,108.69,289.59,131.36,256.75Z" transform="translate(-50.28 -44.21)" style="fill:#fff"/><path d="M1095.48,274c4.93,5.39,39.33,52,59.69,114.24,60.4,181-27.23,352.15-142.62,504.24-14.3,18.91-172.27,216.47-172.37,216.58C969.63,925.48,1199.32,658.88,1095.48,274Z" transform="translate(-50.28 -44.21)" style="fill:#fff"/></svg>